<svg xmlns="http://www.w3.org/2000/svg" width="140" height="140" viewBox="0 0 140 140" version="1.1"><path d="M 3 31.500 L 3 60 12.500 60 C 20.803 60, 22.263 59.737, 24.090 57.910 L 26.180 55.820 23.985 53.484 C 22.778 52.199, 22.096 50.654, 22.470 50.049 C 22.848 49.436, 22.573 49.072, 21.848 49.225 C 19.399 49.743, 19.783 44.974, 22.474 41.445 C 24.828 38.360, 25.604 38, 29.915 38 C 33.806 38, 35.242 38.515, 37.419 40.692 C 39.767 43.039, 40.027 43.903, 39.453 47.442 C 39.090 49.674, 38.390 51.927, 37.897 52.450 C 37.404 52.972, 37 54.273, 37 55.340 C 37 58.957, 39.903 59.935, 50.750 59.968 L 61 60 61 47 C 61 34.279, 61.047 34, 63.196 34 C 64.404 34, 67.048 35.148, 69.072 36.550 C 73.288 39.472, 77.081 39.150, 79.523 35.663 C 81.402 32.981, 81.395 29.880, 79.498 25.340 C 78.041 21.854, 77.872 21.765, 73.924 22.396 C 71.031 22.859, 70.054 22.722, 70.547 21.924 C 71.014 21.168, 70.466 21.204, 68.871 22.036 C 65.441 23.823, 65.145 24.344, 68 23.572 C 70.435 22.914, 70.448 22.938, 68.501 24.491 C 67.401 25.367, 65.376 25.953, 64.001 25.792 C 61.518 25.502, 61.498 25.420, 61.217 14.250 L 60.934 3 31.967 3 L 3 3 3 31.500 M 73.813 20.683 C 74.534 20.972, 75.397 20.936, 75.729 20.604 C 76.061 20.272, 75.471 20.036, 74.417 20.079 C 73.252 20.127, 73.015 20.364, 73.813 20.683 M 82 29 C 82 29.733, 82.300 30.033, 82.667 29.667 C 83.033 29.300, 83.033 28.700, 82.667 28.333 C 82.300 27.967, 82 28.267, 82 29 M 63.333 35.667 C 63.700 36.033, 64.300 36.033, 64.667 35.667 C 65.033 35.300, 64.733 35, 64 35 C 63.267 35, 62.967 35.300, 63.333 35.667 M 62 52 C 62 52.733, 62.300 53.033, 62.667 52.667 C 63.033 52.300, 63.033 51.700, 62.667 51.333 C 62.300 50.967, 62 51.267, 62 52" stroke="none" fill="#7a49dd" fill-rule="evenodd"/><path d="M 2 31.500 L 2 61 9.250 61.151 C 19.394 61.362, 21.995 61.049, 24.667 59.299 C 27.728 57.293, 27.653 53.659, 24.500 51.179 C 20.505 48.036, 21.520 42.914, 26.684 40.163 C 30.190 38.296, 32.953 38.800, 36.019 41.865 C 39.028 44.874, 39.117 47.253, 36.380 51.508 C 34.305 54.732, 35.122 58.103, 38.474 60.147 C 40.757 61.539, 43.492 61.993, 49.611 61.996 C 57.473 62, 57.710 62.069, 57.326 64.250 C 56.672 67.957, 60.294 72.645, 64.407 73.417 C 66.997 73.902, 68 74.608, 68 75.945 C 68 77.957, 56.067 90.048, 52.927 91.218 C 51.867 91.613, 51 92.410, 51 92.990 C 51 94.134, 57.166 101.150, 63.394 107.094 C 67.844 111.341, 67.899 114.693, 63.499 113.589 C 59.371 112.553, 54.387 115.298, 53.052 119.342 C 51.098 125.262, 55.409 131.236, 62.610 132.587 C 67.008 133.412, 69.627 131.709, 72.013 126.471 C 73.133 124.012, 74.376 122.003, 74.775 122.007 C 75.174 122.011, 78.858 125.836, 82.962 130.507 C 87.066 135.178, 91.039 139, 91.791 139 C 92.543 139, 95.907 136.637, 99.266 133.750 C 105.739 128.187, 106.463 127.546, 112.599 121.930 C 114.745 119.967, 121 114.381, 126.500 109.517 C 138.480 98.922, 139.512 97.661, 137.700 95.825 C 134.740 92.825, 124 78.800, 124 77.934 C 124 77.421, 125.605 77, 127.566 77 C 132.177 77, 134.619 75.637, 136.490 72.020 C 140.143 64.955, 135.994 57.475, 127.371 55.581 C 124.881 55.035, 123.656 55.418, 121.143 57.533 C 119.422 58.981, 117.647 61.591, 117.198 63.333 C 115.787 68.809, 113.216 67.924, 106.162 59.537 C 102.676 55.391, 99.386 52, 98.851 52 C 98.316 52, 94.220 55.167, 89.749 59.037 C 85.278 62.907, 80.937 65.942, 80.103 65.781 C 79.241 65.615, 78.236 63.800, 77.774 61.573 C 76.433 55.120, 72.899 52.587, 65.694 52.915 L 61.889 53.088 62.577 44.294 C 62.956 39.457, 63.423 35.321, 63.615 35.101 C 63.807 34.882, 65.729 35.926, 67.887 37.422 C 77.496 44.081, 86.185 34.993, 80.578 24.150 C 79.187 21.461, 78.397 21, 75.174 21 C 73.098 21, 70.942 21.458, 70.383 22.017 C 69.823 22.577, 67.947 23.442, 66.213 23.939 C 63.167 24.812, 63.039 24.725, 62.403 21.335 C 62.041 19.406, 62.033 15.378, 62.385 12.386 C 62.736 9.393, 62.745 5.832, 62.404 4.472 L 61.783 2 31.892 2 L 2 2 2 31.500 M 3 31.500 L 3 60 12.500 60 C 20.729 60, 22.273 59.727, 24.040 57.960 L 26.080 55.920 23.040 52.232 C 19.335 47.738, 19.243 45.682, 22.551 41.344 C 24.821 38.368, 25.632 38, 29.915 38 C 33.806 38, 35.242 38.515, 37.419 40.692 C 39.767 43.039, 40.027 43.903, 39.453 47.442 C 39.090 49.674, 38.390 51.927, 37.897 52.450 C 37.404 52.972, 37 54.273, 37 55.340 C 37 58.957, 39.903 59.935, 50.750 59.968 L 61 60 61 47 C 61 34.279, 61.047 34, 63.196 34 C 64.404 34, 67.048 35.148, 69.072 36.550 C 73.288 39.472, 77.081 39.150, 79.523 35.663 C 81.388 33.001, 81.396 29.884, 79.551 25.468 C 77.825 21.336, 75.363 20.985, 69.634 24.056 C 67.524 25.187, 64.830 25.975, 63.649 25.806 C 61.616 25.516, 61.485 24.894, 61.217 14.250 L 60.934 3 31.967 3 L 3 3 3 31.500 M 64.751 55.689 C 63.789 55.941, 62.727 57.238, 62.392 58.573 C 62.057 59.908, 61.382 61, 60.892 61 C 59.691 61, 59.758 65.679, 60.992 67.984 C 61.537 69.004, 63.450 70.151, 65.242 70.534 C 69.638 71.474, 71.006 72.750, 70.967 75.872 C 70.929 78.851, 69.882 80.190, 61.274 88.258 L 55.131 94.016 62.566 102.543 C 66.655 107.232, 70 111.657, 70 112.374 C 70 114.128, 65.667 116, 61.608 116 C 57.762 116, 54.986 118.566, 55.032 122.079 C 55.075 125.340, 57.012 127.681, 61.085 129.394 C 65.408 131.211, 67.347 130.209, 70.131 124.717 C 74.698 115.708, 76.434 116.611, 91.641 135.891 C 92.015 136.366, 98.228 131.320, 107.035 123.387 C 123.432 108.617, 129.733 102.969, 132.751 100.336 L 136.003 97.500 129.026 89 C 120.083 78.103, 119.837 74, 128.129 74 C 131.772 74, 134.923 72.040, 135.077 69.679 C 135.119 69.030, 135.308 67.687, 135.496 66.693 C 135.998 64.051, 130.314 58, 127.331 58 C 123.378 58, 121.421 59.608, 119.613 64.344 C 118.393 67.539, 117.255 68.909, 115.554 69.234 C 112.297 69.857, 111.284 69.118, 105.062 61.585 C 102.070 57.963, 99.217 55, 98.722 55 C 98.226 55, 94.288 58.189, 89.972 62.087 C 83.849 67.615, 81.671 69.030, 80.067 68.521 C 76.974 67.540, 75 65.148, 75 62.383 C 75 57.604, 69.977 54.323, 64.751 55.689" stroke="none" fill="#0c111f" fill-rule="evenodd"/><path d="M 64.751 55.689 C 63.789 55.941, 62.727 57.238, 62.392 58.573 C 62.057 59.908, 61.382 61, 60.892 61 C 59.691 61, 59.758 65.679, 60.992 67.984 C 61.537 69.004, 63.450 70.151, 65.242 70.534 C 69.638 71.474, 71.006 72.750, 70.967 75.872 C 70.929 78.851, 69.882 80.190, 61.274 88.258 L 55.131 94.016 62.566 102.543 C 66.655 107.232, 70 111.657, 70 112.374 C 70 114.128, 65.667 116, 61.608 116 C 57.762 116, 54.986 118.566, 55.032 122.079 C 55.075 125.340, 57.012 127.681, 61.085 129.394 C 65.408 131.211, 67.347 130.209, 70.131 124.717 C 74.698 115.708, 76.434 116.611, 91.641 135.891 C 92.015 136.366, 98.228 131.320, 107.035 123.387 C 123.432 108.617, 129.733 102.969, 132.751 100.336 L 136.003 97.500 129.026 89 C 120.083 78.103, 119.837 74, 128.129 74 C 131.772 74, 134.923 72.040, 135.077 69.679 C 135.119 69.030, 135.308 67.687, 135.496 66.693 C 135.998 64.051, 130.314 58, 127.331 58 C 123.378 58, 121.421 59.608, 119.613 64.344 C 118.393 67.539, 117.255 68.909, 115.554 69.234 C 112.297 69.857, 111.284 69.118, 105.062 61.585 C 102.070 57.963, 99.217 55, 98.722 55 C 98.226 55, 94.288 58.189, 89.972 62.087 C 83.849 67.615, 81.671 69.030, 80.067 68.521 C 76.974 67.540, 75 65.148, 75 62.383 C 75 57.604, 69.977 54.323, 64.751 55.689" stroke="none" fill="#3978ed" fill-rule="evenodd"/></svg>